<svg width="32" height="32" viewBox="0 0 32 32" fill="none" xmlns="http://www.w3.org/2000/svg">
  <defs>
    <linearGradient id="premiumDark" x1="0%" y1="0%" x2="100%" y2="100%">
      <stop offset="0%" style="stop-color:#0f172a;stop-opacity:1" />
      <stop offset="50%" style="stop-color:#1e293b;stop-opacity:1" />
      <stop offset="100%" style="stop-color:#334155;stop-opacity:1" />
    </linearGradient>
    
    <linearGradient id="goldGradient" x1="0%" y1="0%" x2="100%" y2="100%">
      <stop offset="0%" style="stop-color:#fbbf24;stop-opacity:1" />
      <stop offset="50%" style="stop-color:#f59e0b;stop-opacity:1" />
      <stop offset="100%" style="stop-color:#d97706;stop-opacity:1" />
    </linearGradient>
    
    <linearGradient id="cyanGradient" x1="0%" y1="0%" x2="100%" y2="100%">
      <stop offset="0%" style="stop-color:#06b6d4;stop-opacity:1" />
      <stop offset="100%" style="stop-color:#0891b2;stop-opacity:1" />
    </linearGradient>
  </defs>
  
  <!-- Main background -->
  <rect x="2" y="2" width="28" height="28" rx="8" fill="url(#premiumDark)" stroke="url(#goldGradient)" stroke-width="1"/>
  
  <!-- Central AI symbol -->
  <g transform="translate(16, 12)">
    <!-- Main AI brain -->
    <ellipse cx="0" cy="0" rx="6" ry="4" fill="url(#cyanGradient)" opacity="0.9"/>
    
    <!-- Neural network nodes -->
    <circle cx="-4" cy="-2" r="1" fill="url(#goldGradient)"/>
    <circle cx="0" cy="-3" r="1.5" fill="url(#goldGradient)"/>
    <circle cx="4" cy="-2" r="1" fill="url(#goldGradient)"/>
    <circle cx="-3" cy="2" r="1" fill="url(#goldGradient)"/>
    <circle cx="3" cy="2" r="1" fill="url(#goldGradient)"/>
    <circle cx="0" cy="3" r="1" fill="url(#goldGradient)"/>
    
    <!-- Connection lines -->
    <line x1="-4" y1="-2" x2="0" y2="-3" stroke="url(#goldGradient)" stroke-width="0.5" opacity="0.7"/>
    <line x1="0" y1="-3" x2="4" y2="-2" stroke="url(#goldGradient)" stroke-width="0.5" opacity="0.7"/>
    <line x1="-4" y1="-2" x2="-3" y2="2" stroke="url(#goldGradient)" stroke-width="0.5" opacity="0.7"/>
    <line x1="4" y1="-2" x2="3" y2="2" stroke="url(#goldGradient)" stroke-width="0.5" opacity="0.7"/>
    <line x1="-3" y1="2" x2="0" y2="3" stroke="url(#goldGradient)" stroke-width="0.5" opacity="0.7"/>
    <line x1="3" y1="2" x2="0" y2="3" stroke="url(#goldGradient)" stroke-width="0.5" opacity="0.7"/>
  </g>
  
  <!-- W text -->
  <text x="16" y="26" text-anchor="middle" fill="url(#goldGradient)" font-family="Inter, sans-serif" font-size="6" font-weight="800" letter-spacing="0.5px">W</text>
</svg>
